<mxfile>
    <diagram id="2fvvt1Dn1I_3RO0F6EEH" name="ページ1">
        <mxGraphModel dx="1101" dy="1752" grid="1" gridSize="10" guides="1" tooltips="1" connect="1" arrows="1" fold="1" page="1" pageScale="1" pageWidth="827" pageHeight="1169" math="0" shadow="0">
            <root>
                <mxCell id="0"/>
                <mxCell id="1" parent="0"/>
                <mxCell id="24" value="" style="rounded=0;whiteSpace=wrap;html=1;fillColor=#FFFFFF;strokeColor=none;" vertex="1" parent="1">
                    <mxGeometry x="20" y="-10" width="760" height="560" as="geometry"/>
                </mxCell>
                <mxCell id="4" value="" style="rounded=1;whiteSpace=wrap;html=1;fillColor=none;fontSize=12;arcSize=8;sketch=0;strokeColor=#000000;" parent="1" vertex="1">
                    <mxGeometry x="50" y="180" width="500" height="330" as="geometry"/>
                </mxCell>
                <mxCell id="7" value="発達支援総合相談" style="text;strokeColor=#001DBC;fillColor=#0050ef;html=1;fontSize=18;fontStyle=1;verticalAlign=middle;align=left;fontColor=#ffffff;" parent="1" vertex="1">
                    <mxGeometry x="80" y="200" width="150" height="20" as="geometry"/>
                </mxCell>
                <mxCell id="2" value="発達が気になる&lt;br style=&quot;font-size: 20px;&quot;&gt;子どもと保護者" style="ellipse;whiteSpace=wrap;html=1;fontSize=20;sketch=0;" parent="1" vertex="1">
                    <mxGeometry x="80" y="10" width="240" height="60" as="geometry"/>
                </mxCell>
                <mxCell id="3" value="" style="shape=singleArrow;direction=south;whiteSpace=wrap;html=1;fontSize=16;arrowWidth=0.5;arrowSize=0.58;" parent="1" vertex="1">
                    <mxGeometry x="170" y="100" width="60" height="40" as="geometry"/>
                </mxCell>
                <mxCell id="5" value="児童発達支援センター（相談窓口）" style="text;html=1;strokeColor=#001DBC;align=center;verticalAlign=middle;whiteSpace=wrap;rounded=0;fontSize=17;fillColor=#0050ef;fontColor=#ffffff;" parent="1" vertex="1">
                    <mxGeometry x="70" y="150" width="280" height="30" as="geometry"/>
                </mxCell>
                <mxCell id="6" value="&lt;ul&gt;&lt;li&gt;発達に関する不安、疑問に丁寧に対応&lt;/li&gt;&lt;li&gt;地域の支援機関に適切につなぐ&lt;/li&gt;&lt;li&gt;&lt;u&gt;地域の情報を提供&lt;/u&gt;&lt;/li&gt;&lt;li&gt;状況に応じて専門相談につなぐ&lt;/li&gt;&lt;li&gt;必要に応じて繰り返し相談に対応&lt;/li&gt;&lt;/ul&gt;" style="shape=ext;double=1;rounded=1;whiteSpace=wrap;html=1;fontSize=16;align=left;" parent="1" vertex="1">
                    <mxGeometry x="70" y="220" width="350" height="140" as="geometry"/>
                </mxCell>
                <mxCell id="8" value="専門相談" style="text;strokeColor=#001DBC;fillColor=#0050ef;html=1;fontSize=18;fontStyle=1;verticalAlign=middle;align=left;fontColor=#ffffff;" parent="1" vertex="1">
                    <mxGeometry x="80" y="380" width="80" height="20" as="geometry"/>
                </mxCell>
                <mxCell id="9" value="&lt;ul&gt;&lt;li&gt;専門職による相談&lt;/li&gt;&lt;li&gt;&lt;u&gt;アセスメントの実施&lt;/u&gt;&lt;/li&gt;&lt;li&gt;&lt;u&gt;必要に応じて発達検査を実施&lt;/u&gt;&lt;/li&gt;&lt;/ul&gt;" style="shape=ext;double=1;rounded=1;whiteSpace=wrap;html=1;fontSize=16;align=left;" parent="1" vertex="1">
                    <mxGeometry x="70" y="400" width="350" height="90" as="geometry"/>
                </mxCell>
                <mxCell id="10" value="" style="shape=singleArrow;whiteSpace=wrap;html=1;fontSize=18;align=left;arrowWidth=0.34545454545454546;arrowSize=0.52;" parent="1" vertex="1">
                    <mxGeometry x="430" y="262.5" width="50" height="55" as="geometry"/>
                </mxCell>
                <mxCell id="11" value="" style="shape=singleArrow;whiteSpace=wrap;html=1;fontSize=18;align=left;arrowWidth=0.34545454545454546;arrowSize=0.52;" parent="1" vertex="1">
                    <mxGeometry x="430" y="417.5" width="50" height="55" as="geometry"/>
                </mxCell>
                <mxCell id="12" value="コ｜ディネ｜ト" style="rounded=1;whiteSpace=wrap;html=1;fontSize=24;align=center;horizontal=1;verticalAlign=middle;fontFamily=Helvetica;arcSize=37;" parent="1" vertex="1">
                    <mxGeometry x="490" y="220" width="40" height="270" as="geometry"/>
                </mxCell>
                <mxCell id="13" value="&lt;font style=&quot;font-size: 18px&quot;&gt;療育機関&lt;br&gt;&lt;/font&gt;（センター内含む）" style="rounded=1;whiteSpace=wrap;html=1;sketch=0;fontFamily=Helvetica;fontSize=12;align=center;" parent="1" vertex="1">
                    <mxGeometry x="600" y="192.5" width="150" height="60" as="geometry"/>
                </mxCell>
                <mxCell id="14" value="&lt;font style=&quot;font-size: 18px&quot;&gt;保育園、幼稚園&lt;br&gt;小・中学校&lt;/font&gt;" style="rounded=1;whiteSpace=wrap;html=1;sketch=0;fontFamily=Helvetica;fontSize=12;align=center;" parent="1" vertex="1">
                    <mxGeometry x="600" y="272.5" width="150" height="60" as="geometry"/>
                </mxCell>
                <mxCell id="15" value="&lt;font style=&quot;font-size: 18px&quot;&gt;医療機関&lt;br&gt;&lt;/font&gt;" style="rounded=1;whiteSpace=wrap;html=1;sketch=0;fontFamily=Helvetica;fontSize=12;align=center;" parent="1" vertex="1">
                    <mxGeometry x="600" y="352.5" width="150" height="60" as="geometry"/>
                </mxCell>
                <mxCell id="16" value="&lt;font style=&quot;font-size: 18px&quot;&gt;その他関係機関&lt;br&gt;&lt;/font&gt;" style="rounded=1;whiteSpace=wrap;html=1;sketch=0;fontFamily=Helvetica;fontSize=12;align=center;" parent="1" vertex="1">
                    <mxGeometry x="600" y="430" width="150" height="60" as="geometry"/>
                </mxCell>
                <mxCell id="18" value="" style="shape=singleArrow;whiteSpace=wrap;html=1;fontSize=18;align=left;arrowWidth=0.34545454545454546;arrowSize=0.52;" parent="1" vertex="1">
                    <mxGeometry x="560" y="205" width="30" height="35" as="geometry"/>
                </mxCell>
                <mxCell id="20" value="" style="shape=singleArrow;whiteSpace=wrap;html=1;fontSize=18;align=left;arrowWidth=0.34545454545454546;arrowSize=0.52;" parent="1" vertex="1">
                    <mxGeometry x="560" y="285" width="30" height="35" as="geometry"/>
                </mxCell>
                <mxCell id="21" value="" style="shape=singleArrow;whiteSpace=wrap;html=1;fontSize=18;align=left;arrowWidth=0.34545454545454546;arrowSize=0.52;" parent="1" vertex="1">
                    <mxGeometry x="560" y="365" width="30" height="35" as="geometry"/>
                </mxCell>
                <mxCell id="22" value="" style="shape=singleArrow;whiteSpace=wrap;html=1;fontSize=18;align=left;arrowWidth=0.34545454545454546;arrowSize=0.52;" parent="1" vertex="1">
                    <mxGeometry x="560" y="442.5" width="30" height="35" as="geometry"/>
                </mxCell>
                <mxCell id="23" value="電話、メール、来所" style="text;html=1;strokeColor=none;fillColor=none;align=center;verticalAlign=middle;whiteSpace=wrap;rounded=0;sketch=0;fontFamily=Helvetica;fontSize=17;fontColor=#000000;" parent="1" vertex="1">
                    <mxGeometry x="115" y="74" width="170" height="20" as="geometry"/>
                </mxCell>
            </root>
        </mxGraphModel>
    </diagram>
</mxfile>